<?xml version="1.0" standalone="no"?>
<!DOCTYPE svg PUBLIC "-//W3C//DTD SVG 20010904//EN"
 "http://www.w3.org/TR/2001/REC-SVG-20010904/DTD/svg10.dtd">
<svg version="1.0" xmlns="http://www.w3.org/2000/svg"
 width="1024.000000pt" height="1024.000000pt" viewBox="0 0 1024.000000 1024.000000"
 preserveAspectRatio="xMidYMid meet">

<g transform="translate(0.000000,1024.000000) scale(0.100000,-0.100000)"
fill="#801900" stroke="none">
<path d="M4935 8703 c-761 -72 -1494 -426 -2024 -979 -513 -534 -823 -1190
-917 -1939 -22 -178 -22 -541 0 -740 39 -343 131 -682 262 -962 l43 -93 155 0
c128 0 156 -3 163 -15 5 -8 42 -24 83 -36 139 -38 361 -157 424 -228 25 -28
38 -27 58 7 10 16 35 41 57 57 74 51 116 55 600 55 l445 0 60 -40 c55 -35 152
-70 197 -70 38 0 162 -74 222 -133 148 -146 217 -338 204 -570 -9 -171 -66
-311 -178 -432 -26 -28 -39 -50 -35 -60 4 -12 140 -229 152 -244 2 -2 31 22
66 54 35 31 82 66 105 78 l42 21 3 585 c3 642 1 619 64 694 34 41 67 62 131
87 l52 19 58 -35 c85 -51 122 -59 273 -58 151 0 189 10 277 70 l52 35 269 -3
270 -3 44 -30 c23 -17 53 -49 66 -70 22 -39 22 -46 20 -295 l-3 -255 -28 -47
c-47 -80 -145 -133 -233 -126 l-45 3 3 -145 3 -145 55 -6 c70 -8 109 -28 156
-82 l38 -44 52 24 c28 13 75 29 103 36 45 10 51 15 46 32 -60 216 -36 477 64
689 149 319 389 504 776 598 67 16 129 23 246 25 l156 4 48 101 c291 618 360
1400 185 2105 -153 618 -471 1170 -941 1631 -310 304 -744 567 -1184 718 -336
116 -646 165 -1015 162 -113 -1 -223 -3 -245 -5z m655 -238 c510 -79 970 -278
1401 -606 185 -140 437 -401 560 -578 24 -35 62 -89 83 -120 262 -378 445
-839 510 -1281 39 -263 47 -522 26 -775 -25 -283 -104 -594 -219 -859 -9 -23
-26 -61 -36 -86 -10 -25 -23 -51 -28 -57 -10 -14 -50 -16 -107 -7 l-35 6 3
586 c3 675 5 650 -82 737 -32 31 -66 55 -91 62 -63 19 -364 36 -416 24 -82
-19 -79 -22 -79 82 0 103 -18 149 -66 167 -38 15 -457 13 -489 -2 -42 -19 -55
-56 -55 -158 l0 -90 -37 -1 c-21 -1 -42 0 -48 1 -5 1 -24 6 -42 10 -31 7 -89
0 -127 -15 -17 -7 -18 -5 -12 26 27 140 15 190 -103 421 l-81 157 89 88 c73
73 96 103 130 174 23 48 46 113 52 146 l10 59 52 0 c38 0 63 7 92 26 126 80
238 325 265 583 26 238 -42 445 -195 599 -122 121 -235 176 -385 183 -83 5
-105 2 -169 -20 l-74 -24 -60 63 c-148 159 -370 279 -557 302 -112 14 -274 0
-329 -27 -49 -25 -81 -70 -88 -121 l-6 -40 52 0 c58 0 160 -31 203 -61 35 -25
36 -16 3 27 -39 51 -34 61 32 70 160 20 375 -66 510 -202 34 -35 79 -72 100
-83 21 -10 64 -42 96 -70 l58 -51 42 29 c62 42 110 54 191 49 56 -4 85 -12
133 -37 131 -70 234 -191 276 -326 31 -99 29 -265 -3 -385 -46 -170 -125 -320
-169 -320 -35 0 -182 245 -286 475 -24 53 -45 98 -47 100 -2 2 2 -55 10 -128
16 -162 51 -311 99 -430 l36 -89 -21 -84 c-40 -161 -103 -256 -250 -375 -139
-112 -266 -168 -470 -206 -130 -24 -427 -24 -558 0 -177 32 -358 111 -478 207
-160 128 -227 236 -256 414 -8 52 -6 64 26 149 62 162 106 377 104 506 -1 23
-4 20 -22 -19 -151 -321 -249 -492 -293 -512 -22 -10 -29 -8 -51 13 -51 47
-119 207 -149 352 -19 89 -19 237 0 312 37 140 141 269 276 340 123 65 254 60
340 -12 l30 -26 47 41 c80 70 174 131 237 153 107 39 242 36 370 -6 43 -15
-53 56 -132 97 -74 38 -84 47 -89 76 -4 18 -4 48 -1 67 l6 34 -67 -25 c-97
-36 -215 -110 -286 -179 l-62 -60 -49 18 c-29 11 -88 21 -140 24 -174 10 -293
-42 -445 -196 -96 -98 -133 -155 -176 -276 -29 -81 -31 -284 -5 -413 49 -238
153 -430 266 -489 17 -9 50 -16 75 -17 49 -1 60 -9 60 -44 0 -49 63 -185 122
-263 46 -61 120 -134 156 -155 2 -1 -30 -64 -71 -140 -106 -199 -131 -264
-131 -346 -1 -38 -2 -68 -4 -68 -1 0 -34 27 -74 60 -92 78 -166 115 -214 107
-52 -9 -102 -44 -127 -91 -21 -39 -22 -50 -19 -248 l3 -208 -55 0 -56 0 0 90
c0 103 -14 141 -60 165 -23 12 -70 15 -229 15 l-201 0 -32 -29 c-33 -29 -33
-30 -36 -134 l-4 -105 -106 -4 c-111 -4 -150 -16 -200 -62 -58 -52 -57 -42
-62 -551 l-5 -470 -34 -3 c-67 -7 -76 1 -121 105 -92 210 -167 455 -209 685
-51 277 -55 758 -8 1029 42 236 96 428 184 654 107 272 309 608 509 846 236
280 535 525 868 709 383 212 725 318 1171 364 96 10 514 -3 615 -19z m-1099
-2507 c41 -23 126 -63 189 -88 79 -32 116 -52 118 -64 3 -15 -2 -16 -35 -11
-94 16 -194 50 -285 96 -98 51 -114 69 -86 97 17 17 18 17 99 -30z m57 -202
c88 -44 377 -116 467 -116 49 0 52 -16 6 -39 -58 -30 -130 -105 -158 -167 -22
-48 -25 -66 -21 -137 9 -196 136 -320 328 -320 130 -1 242 69 294 182 29 66
29 208 0 272 -28 59 -85 123 -141 156 -23 13 -43 31 -43 38 0 15 31 25 76 25
53 0 204 29 294 56 106 32 218 83 281 128 l48 35 20 -33 c20 -32 71 -141 71
-152 0 -2 -27 14 -60 36 -33 22 -60 38 -60 35 0 -3 11 -23 25 -45 36 -57 80
-195 105 -330 52 -276 51 -232 14 -392 -28 -124 -215 -755 -231 -781 -3 -5 10
-22 30 -38 79 -65 89 -156 24 -226 -42 -47 -91 -22 -148 72 l-24 40 -3 -65
c-3 -71 -20 -100 -58 -100 -40 0 -54 25 -55 98 l0 67 -19 -41 c-32 -73 -95
-107 -148 -80 -65 34 -86 140 -79 405 3 144 10 217 31 326 14 77 31 151 36
165 l10 25 -17 -22 c-10 -12 -33 -49 -52 -83 -44 -77 -125 -176 -186 -225
l-46 -38 -66 64 c-73 72 -157 179 -197 254 -15 28 -24 39 -21 25 31 -142 57
-287 64 -363 10 -106 -2 -414 -19 -469 -13 -44 -52 -78 -89 -78 -34 0 -99 54
-120 99 l-16 36 -3 -70 c-3 -79 -13 -95 -53 -95 -42 0 -63 37 -57 100 3 28 2
50 -3 50 -4 0 -17 -17 -30 -37 -54 -92 -98 -107 -149 -53 -58 62 -46 149 29
216 l39 36 -17 42 c-34 78 -190 600 -220 733 l-30 132 20 135 c34 234 92 420
151 484 28 29 19 28 -54 -8 -34 -17 -63 -29 -65 -26 -2 2 16 47 41 100 l45 96
81 -55 c45 -30 102 -66 128 -79z m666 83 c42 -19 60 -72 50 -142 -6 -37 -14
-62 -23 -65 -11 -4 -13 4 -8 40 12 85 -17 138 -76 138 -44 0 -62 -34 -59 -111
2 -55 0 -69 -12 -69 -19 0 -36 52 -36 107 0 38 6 51 34 79 37 37 82 45 130 23z
m-29 -144 c0 -21 -6 -23 -42 -10 -36 12 -29 37 10 33 24 -2 32 -8 32 -23z
m1783 -122 l-3 -57 -190 2 -190 2 -3 55 -3 55 196 0 196 0 -3 -57z m-3112 -31
c22 -15 67 -48 100 -73 32 -25 79 -56 103 -70 l43 -24 -6 -50 c-27 -208 -27
-222 0 -422 l7 -53 -49 15 c-98 29 -181 114 -210 213 -17 58 -43 194 -38 200
1 2 13 -4 26 -12 l24 -16 -24 73 c-25 74 -43 247 -26 247 5 0 27 -12 50 -28z
m1405 -33 c55 -28 106 -93 119 -152 13 -60 5 -128 -19 -157 -9 -11 -24 -31
-34 -45 -40 -56 -165 -90 -240 -66 -92 31 -177 157 -162 241 9 52 51 132 81
153 76 56 177 66 255 26z m1948 -822 c1 -643 -1 -718 -15 -724 -38 -14 -39 -5
-42 731 l-3 712 23 29 23 29 6 -29 c4 -17 7 -353 8 -748z m-919 424 c0 -187
-4 -342 -8 -345 -13 -8 -45 120 -39 156 3 18 11 63 18 100 12 60 11 79 -9 191
-12 68 -22 137 -22 152 0 28 34 85 51 85 5 0 9 -136 9 -339z m1082 294 c51
-34 88 -113 87 -184 l0 -56 -13 40 c-21 66 -44 102 -86 136 -30 24 -40 40 -40
61 0 34 6 35 52 3z m-300 -7 c-3 -13 -10 -26 -16 -30 -13 -9 -617 -11 -640 -2
-9 3 -16 17 -16 30 l0 24 339 0 339 0 -6 -22z m-3627 -143 l0 -70 -177 -3
-178 -2 0 69 c0 46 4 71 13 74 6 3 86 5 177 4 l165 -2 0 -70z m243 -170 c3
-20 -3 -20 -435 -20 -401 0 -440 -1 -464 -18 -54 -36 -54 -36 -54 -496 0 -422
0 -426 22 -468 28 -54 16 -55 -30 -4 -56 62 -59 95 -55 531 3 356 4 388 22
424 39 79 23 76 536 74 446 -3 455 -3 458 -23z m-438 -217 c0 -6 -7 -19 -15
-27 -13 -15 -10 -16 33 -15 59 2 62 2 62 12 0 4 -15 7 -32 7 -23 0 -34 5 -36
18 -6 32 93 19 101 -14 6 -22 27 -26 27 -4 0 8 5 15 11 15 6 0 8 -10 5 -22 -3
-13 -3 -17 0 -10 9 20 31 14 67 -18 19 -16 39 -30 44 -30 14 0 59 -86 77 -149
19 -64 20 -125 5 -187 -10 -39 -14 -44 -33 -38 -18 6 -19 5 -8 -8 17 -21 3
-53 -44 -104 -41 -43 -104 -91 -104 -78 0 4 -9 -1 -20 -11 -14 -13 -20 -14
-20 -5 0 9 -5 9 -18 -4 -16 -13 -34 -15 -108 -11 -49 2 -90 9 -92 15 -2 5 -11
10 -20 10 -42 0 -140 87 -195 173 -17 26 -36 136 -31 174 9 62 18 92 35 121
11 19 16 38 13 44 -4 7 -2 8 4 4 7 -4 12 -4 12 1 0 4 19 29 43 54 40 44 72 65
91 60 5 -1 12 3 16 9 3 6 26 14 51 19 64 13 79 12 79 -1z m989 -403 c70 -217
71 -219 51 -240 -34 -36 -53 -97 -54 -167 0 -60 -2 -66 -17 -57 -48 25 -120
140 -150 240 -18 60 -21 88 -17 177 6 114 27 188 76 267 30 47 18 72 111 -220z
m1955 205 c88 -162 99 -367 27 -533 -20 -46 -104 -147 -123 -147 -5 0 -7 13
-3 29 10 48 -12 142 -45 189 l-31 44 30 91 c44 135 101 336 101 358 0 32 16
21 44 -31z m762 -90 c18 -30 38 -73 45 -94 13 -38 12 -40 -12 -59 -15 -10 -70
-39 -124 -64 -95 -43 -98 -44 -115 -26 -19 20 -80 153 -80 175 0 15 216 127
239 124 8 0 29 -26 47 -56z"/>
<path d="M4664 7211 c-59 -27 -88 -72 -92 -146 -3 -50 0 -66 20 -95 40 -59 84
-82 149 -78 95 7 159 72 159 163 0 126 -125 208 -236 156z m96 -62 c9 -16 8
-26 -5 -45 -26 -39 -75 -26 -75 21 0 45 60 63 80 24z"/>
<path d="M5514 7211 c-98 -45 -130 -158 -69 -252 29 -44 78 -69 140 -69 55 0
93 18 129 60 73 87 48 208 -55 260 -48 25 -92 25 -145 1z m106 -62 c14 -26
-11 -69 -40 -69 -11 0 -27 11 -35 24 -23 34 -5 66 35 66 19 0 33 -7 40 -21z"/>
<path d="M5080 6949 c-42 -17 -60 -40 -60 -77 0 -48 34 -98 76 -114 35 -12 36
-14 30 -53 -9 -57 -64 -105 -120 -105 -51 1 -72 16 -90 66 -15 46 -39 54 -60
22 -47 -73 71 -181 175 -162 42 8 119 51 119 66 0 6 10 2 23 -9 87 -80 224
-72 285 17 27 41 28 71 2 95 -26 24 -46 14 -54 -28 -8 -44 -42 -67 -96 -67
-57 0 -109 49 -113 105 -2 34 2 41 25 52 45 22 78 70 78 113 0 30 -6 43 -31
64 -26 23 -40 26 -97 25 -37 0 -78 -5 -92 -10z m45 -49 c0 -18 -6 -26 -23 -28
-24 -4 -38 18 -28 44 3 9 15 14 28 12 17 -2 23 -10 23 -28z"/>
<path d="M3264 6878 c-9 -18 -21 -39 -27 -46 -12 -16 -177 -371 -177 -383 0
-14 -29 -25 -135 -54 -194 -52 -313 -96 -345 -125 -36 -34 -40 -78 -9 -106 30
-27 81 -22 226 20 67 20 127 36 133 36 5 0 -28 -75 -76 -166 -68 -133 -83
-168 -73 -180 6 -8 17 -14 24 -14 6 0 56 52 110 115 71 82 104 114 115 109 8
-3 20 -8 26 -11 6 -2 23 10 38 28 20 23 24 35 16 44 -14 16 28 84 52 85 9 0
54 -9 100 -19 46 -11 118 -27 160 -36 71 -16 77 -19 83 -46 8 -35 18 -37 33
-6 10 22 10 22 21 -9 8 -20 22 -34 45 -42 44 -16 46 -16 46 11 1 51 24 80 90
111 36 17 64 36 64 41 -1 6 -17 15 -37 20 -20 6 -42 18 -49 28 -13 17 -16 17
-62 -2 -63 -28 -72 -27 -163 13 -43 19 -104 44 -135 56 -83 31 -79 36 34 56
30 5 37 11 40 31 2 20 13 28 57 44 64 22 76 32 67 54 -4 12 -13 15 -31 11 -14
-3 -35 -8 -48 -11 -18 -5 -24 0 -34 25 l-12 31 -39 -20 c-22 -11 -53 -34 -70
-51 -34 -34 -62 -39 -62 -12 0 10 6 41 14 68 12 40 51 208 74 312 4 20 0 22
-32 22 -30 0 -38 -5 -52 -32z m-593 -612 c-23 -25 -68 -42 -80 -31 -10 11 52
55 78 55 l24 0 -22 -24z"/>
<path d="M6974 6816 c-3 -9 1 -58 10 -110 24 -141 28 -130 -70 -176 -53 -24
-91 -37 -98 -31 -21 16 -56 20 -56 6 0 -8 5 -17 10 -20 6 -3 10 -31 10 -61 0
-63 18 -71 35 -16 7 26 17 34 47 43 21 5 58 18 83 29 24 10 46 16 49 12 2 -4
-13 -48 -34 -98 -20 -49 -41 -100 -44 -112 -16 -48 24 -7 124 128 103 137 104
138 171 165 74 29 147 84 135 103 -11 19 -35 15 -119 -19 l-79 -32 -21 22
c-12 12 -42 56 -67 99 -45 75 -74 99 -86 68z"/>
<path d="M7160 6650 c-8 -5 -10 -10 -5 -10 6 0 17 5 25 10 8 5 11 10 5 10 -5
0 -17 -5 -25 -10z"/>
<path d="M3618 6283 c7 -3 16 -2 19 1 4 3 -2 6 -13 5 -11 0 -14 -3 -6 -6z"/>
<path d="M5130 5501 c0 -9 24 -21 42 -21 6 0 6 6 -2 15 -14 16 -40 20 -40 6z"/>
<path d="M5200 5501 c0 -5 10 -11 22 -13 13 -2 24 -11 26 -23 3 -16 1 -18 -9
-7 -17 16 -39 15 -39 -2 0 -18 43 -26 58 -10 17 19 15 31 -10 48 -25 18 -48
21 -48 7z"/>
<path d="M5090 5485 c0 -16 16 -20 24 -6 3 5 -1 11 -9 15 -9 3 -15 0 -15 -9z"/>
<path d="M5026 5459 c-25 -19 -34 -48 -20 -62 9 -8 64 51 64 69 0 19 -13 17
-44 -7z"/>
<path d="M5118 5462 c-33 -7 -18 -22 21 -22 23 0 41 5 44 13 5 14 -25 18 -65
9z"/>
<path d="M5275 5439 c-4 -5 0 -18 9 -28 9 -10 16 -24 16 -33 0 -24 12 -29 26
-10 18 24 17 33 -3 25 -16 -6 -16 -5 -4 10 11 14 11 20 1 32 -15 17 -36 20
-45 4z"/>
<path d="M5047 5392 c-15 -15 -27 -35 -27 -43 1 -9 7 -7 19 9 11 12 26 22 34
22 9 0 18 8 20 18 4 16 5 15 6 -1 1 -16 6 -17 34 -12 36 8 54 21 43 32 -4 4
-16 2 -27 -5 -14 -9 -25 -9 -39 -2 -27 15 -33 13 -63 -18z"/>
<path d="M5200 5406 c0 -7 10 -16 22 -19 27 -7 32 -3 25 18 -8 19 -47 20 -47
1z"/>
<path d="M4965 5380 c-3 -5 -1 -11 5 -15 5 -3 10 -24 10 -45 0 -21 4 -42 10
-45 6 -4 7 1 4 12 -4 10 7 2 24 -17 39 -46 83 -72 102 -60 8 6 28 10 43 10 22
0 28 4 25 18 -4 20 -76 29 -106 13 -15 -8 -23 -5 -40 19 -12 16 -22 34 -22 40
0 5 -7 10 -16 10 -12 0 -14 7 -9 29 4 20 2 30 -9 34 -9 4 -18 2 -21 -3z"/>
<path d="M5260 5352 c0 -33 16 -43 27 -16 3 8 -2 23 -11 32 -15 15 -16 14 -16
-16z"/>
<path d="M5150 5341 c0 -17 -5 -33 -10 -36 -6 -4 -10 -3 -9 2 6 34 -3 53 -23
53 -35 -1 -71 -35 -63 -60 8 -24 42 -26 100 -6 34 12 40 19 43 45 3 26 0 31
-17 31 -17 0 -21 -6 -21 -29z m-46 -17 c9 -3 16 -10 16 -16 0 -14 -43 -5 -48
10 -4 13 7 15 32 6z"/>
<path d="M5203 5340 c0 -18 6 -30 13 -30 18 0 24 13 17 38 -8 33 -30 27 -30
-8z"/>
<path d="M5346 5343 c-5 -20 -3 -40 6 -55 13 -23 13 -23 16 -2 2 12 -1 37 -6
55 l-9 34 -7 -32z"/>
<path d="M4944 5324 c-4 -22 -2 -40 5 -47 8 -8 11 1 11 36 0 56 -7 61 -16 11z"/>
<path d="M5308 5324 c-5 -4 -8 -16 -8 -28 0 -14 3 -17 11 -9 6 6 9 19 7 28 -1
9 -6 13 -10 9z"/>
<path d="M5183 5288 c-38 -10 -45 -23 -8 -14 21 6 25 3 25 -18 0 -23 16 -36
46 -36 21 0 17 21 -6 27 -32 9 -23 25 13 21 23 -2 32 1 32 12 0 18 -52 22
-102 8z"/>
<path d="M4960 5253 c0 -5 5 -15 10 -23 9 -13 11 -13 20 0 15 22 12 30 -10 30
-11 0 -20 -3 -20 -7z"/>
<path d="M5307 5253 c-11 -10 -8 -25 3 -18 6 4 17 1 25 -5 12 -10 15 -9 15 9
0 20 -28 30 -43 14z"/>
<path d="M5013 5219 c-7 -7 -13 -18 -13 -24 0 -17 34 -45 53 -45 28 0 28 18 0
50 -22 25 -30 29 -40 19z m47 -39 c0 -5 -4 -10 -10 -10 -5 0 -10 5 -10 10 0 6
5 10 10 10 6 0 10 -4 10 -10z"/>
<path d="M5293 5212 c-6 -4 -15 -20 -18 -35 -9 -36 21 -38 37 -2 12 28 1 49
-19 37z"/>
<path d="M5210 5185 c0 -9 6 -12 15 -9 8 4 15 10 15 15 0 5 -7 9 -15 9 -8 0
-15 -7 -15 -15z"/>
<path d="M5104 5168 c6 -10 16 -18 23 -18 7 0 13 -4 13 -8 0 -8 43 -32 55 -32
3 0 5 9 5 20 0 17 -5 19 -25 14 -16 -4 -25 -2 -25 6 0 6 9 14 20 17 36 10 21
20 -28 19 -44 -1 -48 -3 -38 -18z"/>
<path d="M5228 5156 c-9 -7 -13 -17 -9 -24 5 -9 11 -9 24 1 9 6 13 17 9 24 -5
8 -11 8 -24 -1z"/>
<path d="M5075 5130 c-6 -10 1 -15 38 -24 15 -3 27 -2 27 3 0 13 -58 32 -65
21z"/>
<path d="M3124 4824 c-17 -14 -17 -15 -1 -10 10 3 30 6 43 6 13 0 24 5 24 10
0 16 -44 12 -66 -6z"/>
<path d="M3324 4795 c-8 -20 13 -45 37 -45 10 0 21 -4 24 -10 10 -17 25 -11
25 9 0 21 -44 61 -67 61 -7 0 -16 -7 -19 -15z"/>
<path d="M3130 4783 c-54 -37 -48 -56 12 -38 31 9 43 18 43 31 0 25 -24 28
-55 7z"/>
<path d="M3210 4776 c0 -26 23 -36 35 -16 4 6 16 8 27 4 16 -5 19 -2 16 13 -2
13 -14 19 -41 21 -34 3 -37 1 -37 -22z"/>
<path d="M3456 4772 c-13 -22 -8 -70 10 -95 28 -38 43 -41 55 -10 8 22 6 30
-16 53 -14 14 -25 31 -25 37 0 16 -17 26 -24 15z"/>
<path d="M3028 4743 c-21 -24 -48 -79 -48 -97 0 -13 4 -14 26 -4 29 14 54 56
54 93 0 29 -11 32 -32 8z"/>
<path d="M3237 4733 c-9 -2 -15 -9 -12 -14 4 -5 18 -6 32 -3 18 5 24 3 19 -5
-4 -6 -15 -11 -25 -11 -20 0 -51 -30 -51 -48 0 -7 7 -12 16 -12 10 0 14 5 10
16 -3 8 -2 12 4 9 6 -3 10 -2 10 3 0 4 16 16 35 25 19 9 35 21 35 26 0 8 -37
22 -50 20 -3 -1 -13 -3 -23 -6z"/>
<path d="M3110 4695 c-19 -20 -20 -25 -7 -25 9 0 19 5 22 10 3 6 18 10 31 10
16 0 24 5 22 13 -8 22 -43 18 -68 -8z"/>
<path d="M3330 4714 c0 -17 47 -64 65 -64 28 0 36 -9 26 -29 -10 -17 11 -56
22 -44 13 13 6 44 -18 83 -14 22 -26 40 -28 40 -1 0 -17 4 -35 9 -17 5 -32 7
-32 5z"/>
<path d="M3284 4660 c-12 -5 -25 -13 -29 -19 -11 -18 21 -12 46 9 25 20 18 25
-17 10z"/>
<path d="M3065 4641 c-6 -19 3 -71 12 -71 2 0 18 14 35 30 16 17 36 30 44 30
8 0 14 7 14 15 0 8 -9 15 -20 15 -11 0 -20 -7 -20 -15 0 -8 -9 -15 -20 -15
-11 0 -20 7 -20 15 0 21 -18 19 -25 -4z"/>
<path d="M3340 4640 c0 -4 11 -10 25 -12 13 -3 22 -2 20 2 -7 11 -45 20 -45
10z"/>
<path d="M3543 4590 c4 -18 7 -47 8 -64 0 -17 3 -24 6 -16 4 8 13 20 21 26 12
9 12 14 -2 42 -24 46 -41 53 -33 12z"/>
<path d="M3180 4600 c-40 -10 -70 -42 -70 -75 0 -32 45 -65 86 -65 28 0 34 4
34 21 0 11 -4 18 -9 15 -5 -4 -20 -2 -33 3 -19 8 -15 10 25 10 26 1 47 3 47 5
0 3 -5 17 -10 33 -9 26 -9 27 5 9 8 -11 15 -26 15 -33 0 -7 9 -13 20 -13 11 0
20 5 20 11 0 6 9 8 20 4 54 -17 84 37 38 69 -24 17 -126 20 -188 6z m180 -44
c0 -8 -7 -17 -16 -20 -8 -3 -12 -2 -9 4 3 6 -5 10 -19 10 -14 0 -26 5 -26 10
0 6 16 10 35 10 23 0 35 -5 35 -14z m-127 -17 c4 -16 3 -18 -8 -9 -7 6 -20 8
-29 4 -11 -4 -16 -1 -16 10 0 25 46 21 53 -5z m-73 -25 c0 -8 -4 -14 -10 -14
-5 0 -10 9 -10 21 0 11 5 17 10 14 6 -3 10 -13 10 -21z"/>
<path d="M2950 4533 c0 -76 11 -106 32 -85 9 9 9 15 0 24 -7 7 -12 38 -12 70
0 32 -4 58 -10 58 -6 0 -10 -29 -10 -67z"/>
<path d="M3001 4587 c-13 -16 -1 -98 14 -98 15 -1 29 56 21 85 -7 29 -18 33
-35 13z"/>
<path d="M3475 4569 c-9 -40 8 -60 31 -37 11 11 14 25 10 42 -9 36 -33 33 -41
-5z"/>
<path d="M3400 4561 c0 -5 5 -13 10 -16 6 -3 10 -2 10 4 0 5 -4 13 -10 16 -5
3 -10 2 -10 -4z"/>
<path d="M3069 4501 c-13 -43 -2 -91 21 -91 11 0 6 117 -4 128 -3 2 -10 -15
-17 -37z"/>
<path d="M3428 4524 c0 -10 0 -30 1 -42 1 -13 -5 -35 -13 -48 -18 -26 -20 -34
-8 -34 11 0 52 73 52 91 0 8 -7 23 -15 33 -15 20 -15 20 -17 0z"/>
<path d="M3365 4510 c-4 -6 -14 -10 -23 -9 -58 5 -90 -2 -95 -21 -4 -18 -2
-20 16 -14 12 3 27 11 34 16 7 5 17 7 23 3 16 -10 57 3 64 20 6 17 -9 21 -19
5z"/>
<path d="M3518 4506 c-10 -7 -18 -23 -18 -34 0 -37 16 -32 27 9 5 21 10 39 9
39 -1 0 -9 -7 -18 -14z"/>
<path d="M3570 4496 c0 -8 5 -18 10 -21 6 -3 10 1 10 9 0 8 -4 18 -10 21 -5 3
-10 -1 -10 -9z"/>
<path d="M3374 4474 c-12 -8 -62 -20 -112 -26 -81 -10 -94 -9 -117 6 -36 24
-43 13 -12 -18 28 -28 74 -35 95 -14 9 9 12 9 12 0 0 -7 7 -12 16 -12 8 0 22
-7 31 -15 8 -9 18 -13 21 -10 3 3 0 11 -6 17 -8 8 -9 15 -1 25 19 22 30 15 23
-14 -7 -26 -6 -27 10 -14 10 8 15 23 12 33 -3 15 -1 17 8 9 14 -12 56 17 56
38 0 15 -10 13 -36 -5z"/>
<path d="M3551 4474 c0 -11 3 -14 6 -6 3 7 2 16 -1 19 -3 4 -6 -2 -5 -13z"/>
<path d="M3002 4423 c-18 -32 -15 -48 14 -82 47 -56 82 -30 42 31 -13 20 -28
44 -34 54 -10 18 -11 18 -22 -3z m48 -73 c0 -5 -4 -10 -10 -10 -5 0 -10 5 -10
10 0 6 5 10 10 10 6 0 10 -4 10 -10z"/>
<path d="M3486 4422 c-4 -11 -18 -37 -32 -57 -24 -36 -24 -55 -1 -55 7 0 18 9
25 20 7 11 19 20 28 20 13 0 15 7 11 37 -8 45 -23 62 -31 35z"/>
<path d="M3100 4363 c0 -29 13 -40 51 -47 30 -5 35 -4 34 12 -1 22 -13 42 -25
42 -5 0 -7 -8 -4 -17 4 -13 0 -11 -12 5 -20 26 -44 29 -44 5z"/>
<path d="M3227 4374 c-15 -16 -5 -24 28 -24 19 0 35 5 35 10 0 6 -6 10 -14 10
-8 0 -21 2 -28 5 -8 3 -17 2 -21 -1z"/>
<path d="M3365 4360 c-12 -4 -27 -15 -34 -24 -11 -13 -11 -17 3 -22 25 -10 76
15 76 37 0 20 -13 23 -45 9z"/>
<path d="M3220 4310 c0 -27 25 -36 58 -20 26 11 26 12 7 26 -29 22 -65 18 -65
-6z"/>
<path d="M3106 4281 c-13 -20 5 -31 50 -31 31 0 44 -4 44 -14 0 -8 -6 -17 -12
-19 -8 -4 -9 -6 -2 -6 6 -1 17 6 24 14 9 11 8 18 -7 34 -21 23 -88 38 -97 22z"/>
<path d="M3353 4283 c-28 -4 -51 -28 -39 -41 10 -10 96 21 96 34 0 8 -6 13
-12 12 -7 0 -27 -3 -45 -5z"/>
<path d="M3430 4280 c0 -5 5 -10 10 -10 6 0 10 5 10 10 0 6 -4 10 -10 10 -5 0
-10 -4 -10 -10z"/>
<path d="M3240 4214 c0 -11 6 -15 20 -11 11 3 20 0 20 -6 0 -8 4 -7 12 1 14
14 11 17 -24 26 -22 5 -28 3 -28 -10z"/>
<path d="M6798 4527 c-63 -33 -76 -52 -28 -42 27 6 31 4 46 -34 9 -23 22 -41
30 -41 17 0 17 -2 -1 51 -26 74 3 91 39 24 10 -19 23 -32 27 -29 13 8 -25 99
-41 100 -8 1 -41 -12 -72 -29z"/>
<path d="M2288 3780 c-361 -61 -650 -356 -708 -723 -63 -391 184 -797 563
-928 375 -129 784 13 1001 348 326 505 39 1174 -556 1297 -80 17 -220 19 -300
6z m296 -519 c72 -35 132 -95 168 -169 20 -40 23 -63 23 -152 0 -95 -3 -110
-28 -158 -90 -171 -265 -239 -450 -176 -70 24 -157 108 -193 186 -25 55 -29
75 -29 153 0 79 4 97 29 149 48 99 135 171 233 196 21 5 70 8 110 6 57 -2 86
-10 137 -35z"/>
<path d="M7735 3784 c-454 -71 -766 -448 -741 -894 7 -137 27 -215 81 -325 89
-180 213 -308 379 -389 140 -69 226 -90 381 -90 160 -1 240 17 380 84 215 104
379 297 455 535 31 99 39 281 15 396 -54 269 -236 498 -488 614 -110 51 -179
66 -312 70 -66 2 -133 1 -150 -1z m260 -519 c72 -35 135 -98 171 -170 26 -54
29 -70 29 -155 0 -114 -18 -163 -91 -241 -58 -61 -110 -92 -183 -109 -164 -38
-333 49 -410 210 -22 46 -26 69 -26 140 0 76 4 93 33 152 44 89 122 161 205
188 86 28 197 22 272 -15z"/>
<path d="M3351 3631 c-21 -21 -21 -23 -21 -754 0 -698 1 -735 18 -750 16 -15
47 -17 225 -17 194 0 207 1 217 19 6 12 10 93 10 195 l0 176 119 0 c141 0 112
25 251 -215 50 -88 97 -163 103 -167 14 -9 448 -11 471 -2 9 3 16 15 16 27 0
11 -59 114 -130 228 -72 115 -133 214 -135 221 -3 8 14 23 42 38 26 14 73 50
104 80 247 241 169 688 -148 853 -146 76 -172 79 -674 85 -444 4 -447 4 -468
-17z m887 -411 c65 -37 96 -95 90 -169 -5 -72 -40 -124 -102 -152 -35 -16 -67
-19 -233 -19 l-193 0 0 178 c0 98 3 182 7 186 4 4 93 6 198 4 181 -3 192 -4
233 -28z"/>
<path d="M5325 3626 l-25 -25 1 -723 c0 -619 2 -726 15 -745 l14 -23 565 0
c499 0 565 2 579 16 13 13 16 44 16 188 0 154 -2 175 -18 189 -16 15 -62 17
-388 19 l-369 3 -3 88 -3 87 220 0 c146 0 229 4 246 12 l25 11 0 167 c0 149
-2 169 -18 183 -16 15 -48 17 -245 17 l-227 0 0 80 0 80 388 0 c288 0 391 3
400 12 8 8 12 63 12 183 0 154 -2 174 -18 188 -17 15 -72 17 -581 17 l-562 0
-24 -24z"/>
<path d="M6835 2465 c-5 -2 -22 -6 -37 -9 -35 -8 -84 -50 -105 -90 -21 -41
-21 -132 1 -174 22 -43 81 -80 139 -88 38 -6 56 -2 99 19 75 37 103 82 103
163 0 55 -4 67 -31 101 -17 21 -44 46 -60 55 -29 17 -91 30 -109 23z"/>
<path d="M5112 1863 c-20 -17 -196 -379 -208 -428 -5 -20 -1 -25 19 -30 13 -4
39 -5 58 -3 28 2 38 10 57 46 l24 43 96 -3 96 -3 20 -40 c20 -38 24 -40 74
-43 85 -5 87 -12 -48 278 -45 96 -89 181 -98 188 -23 17 -66 15 -90 -5z m70
-200 c9 -26 15 -50 12 -55 -6 -9 -68 -11 -76 -2 -7 6 32 104 41 104 3 0 14
-21 23 -47z"/>
<path d="M5486 1872 c-37 -3 -38 -4 -33 -35 3 -18 50 -122 104 -232 l98 -200
48 -3 47 -3 29 63 c16 35 41 90 56 123 65 140 113 260 108 271 -6 15 -50 24
-85 17 -22 -4 -34 -18 -56 -67 -50 -105 -92 -204 -92 -215 0 -32 -21 4 -79
133 -68 155 -67 154 -145 148z"/>
<path d="M3819 1844 c-10 -28 -3 -64 15 -76 6 -4 39 -8 73 -8 l63 0 2 -177 3
-178 55 0 55 0 3 178 2 177 65 0 c69 0 85 11 85 62 0 45 -12 48 -217 48 l-193
0 -11 -26z"/>
<path d="M4372 1858 c-14 -14 -17 -424 -3 -446 5 -9 25 -12 57 -10 l49 3 5 70
5 70 37 0 c35 0 40 -5 85 -70 l48 -70 53 -3 c73 -4 76 12 18 98 l-45 69 29 21
c84 60 79 198 -9 257 -31 21 -45 23 -175 23 -97 0 -146 -4 -154 -12z m254
-106 c18 -12 26 -50 14 -72 -9 -17 -20 -20 -85 -20 l-75 0 0 43 c0 24 3 47 7
50 9 9 125 9 139 -1z"/>
<path d="M6077 1863 c-4 -3 -7 -106 -7 -229 0 -193 2 -223 16 -228 23 -9 317
-7 331 2 18 11 25 55 14 85 l-11 27 -115 0 -115 0 0 30 0 30 68 0 c37 0 84 3
105 6 37 7 37 7 37 54 0 58 -3 60 -121 60 -87 0 -89 0 -89 24 0 31 7 33 125
35 80 1 102 5 113 18 15 20 16 48 2 74 -10 18 -23 19 -179 19 -92 0 -171 -3
-174 -7z"/>
<path d="M6596 1855 c-12 -32 -7 -430 6 -443 8 -8 60 -12 169 -12 178 0 182 2
177 72 l-3 43 -117 3 -118 3 -2 172 -3 172 -51 3 c-40 2 -53 -1 -58 -13z"/>
<path d="M2414 1690 c-29 -11 -35 -33 -18 -59 15 -21 16 -21 610 -21 391 0
602 4 615 10 11 6 19 21 19 35 0 14 -8 29 -19 35 -24 12 -1176 13 -1207 0z"/>
<path d="M7179 1679 c-18 -18 -19 -23 -6 -42 14 -22 18 -22 348 -25 184 -1
344 0 356 3 30 7 39 42 17 66 -16 18 -34 19 -356 19 -329 0 -339 -1 -359 -21z"/>
</g>
</svg>
